{
  "accessors": [
    {
      "bufferView": 2,
      "componentType": 5126,
      "count": 650,
      "max": [
        3.3948099613189697,
        3.455590009689331,
        39.31449890136719
      ],
      "min": [
        -3.394819974899292,
        -3.4554998874664307,
        36.799598693847656
      ],
      "type": "VEC3"
    },
    {
      "bufferView": 2,
      "byteOffset": 7800,
      "componentType": 5126,
      "count": 650,
      "type": "VEC3"
    },
    {
      "bufferView": 3,
      "componentType": 5126,
      "count": 650,
      "type": "VEC4"
    },
    {
      "bufferView": 1,
      "componentType": 5126,
      "count": 650,
      "type": "VEC2"
    },
    {
      "bufferView": 0,
      "componentType": 5125,
      "count": 3066,
      "type": "SCALAR"
    },
    {
      "bufferView": 2,
      "byteOffset": 15600,
      "componentType": 5126,
      "count": 4337,
      "max": [
        12.878299713134766,
        12.878299713134766,
        38.133399963378906
      ],
      "min": [
        -12.878299713134766,
        -12.878299713134766,
        0.009449009783565998
      ],
      "type": "VEC3"
    },
    {
      "bufferView": 2,
      "byteOffset": 67644,
      "componentType": 5126,
      "count": 4337,
      "type": "VEC3"
    },
    {
      "bufferView": 3,
      "byteOffset": 10400,
      "componentType": 5126,
      "count": 4337,
      "type": "VEC4"
    },
    {
      "bufferView": 1,
      "byteOffset": 5200,
      "componentType": 5126,
      "count": 4337,
      "type": "VEC2"
    },
    {
      "bufferView": 0,
      "byteOffset": 12264,
      "componentType": 5125,
      "count": 22656,
      "type": "SCALAR"
    }
  ],
  "asset": {
    "generator": "fab-model-conversion",
    "version": "2.0"
  },
  "bufferViews": [
    {
      "buffer": 0,
      "byteLength": 102888,
      "target": 34963
    },
    {
      "buffer": 0,
      "byteLength": 39896,
      "byteOffset": 102888,
      "byteStride": 8,
      "target": 34962
    },
    {
      "buffer": 0,
      "byteLength": 119688,
      "byteOffset": 142784,
      "byteStride": 12,
      "target": 34962
    },
    {
      "buffer": 0,
      "byteLength": 79792,
      "byteOffset": 262472,
      "byteStride": 16,
      "target": 34962
    }
  ],
  "buffers": [
    {
      "byteLength": 342264,
      "uri": "scene.bin"
    }
  ],
  "images": [
    {
      "uri": "textures/cork_baseColor.jpeg"
    },
    {
      "uri": "textures/cork_metallicRoughness.jpeg"
    },
    {
      "uri": "textures/cork_normal.png"
    },
    {
      "uri": "textures/glass_baseColor.png"
    },
    {
      "uri": "textures/glass_metallicRoughness.jpeg"
    },
    {
      "uri": "textures/glass_normal.png"
    }
  ],
  "materials": [
    {
      "doubleSided": true,
      "name": "cork",
      "normalTexture": {
        "index": 2
      },
      "occlusionTexture": {
        "index": 1
      },
      "pbrMetallicRoughness": {
        "baseColorTexture": {
          "index": 0
        },
        "metallicRoughnessTexture": {
          "index": 1
        }
      }
    },
    {
      "alphaMode": "BLEND",
      "doubleSided": true,
      "name": "glass",
      "normalTexture": {
        "index": 5
      },
      "occlusionTexture": {
        "index": 4
      },
      "pbrMetallicRoughness": {
        "baseColorTexture": {
          "index": 3
        },
        "metallicRoughnessTexture": {
          "index": 4
        },
        "roughnessFactor": 0.5246049407487126
      }
    }
  ],
  "meshes": [
    {
      "name": "Object_0",
      "primitives": [
        {
          "attributes": {
            "NORMAL": 1,
            "POSITION": 0,
            "TANGENT": 2,
            "TEXCOORD_0": 3
          },
          "indices": 4,
          "material": 0,
          "mode": 4
        }
      ]
    },
    {
      "name": "Object_1",
      "primitives": [
        {
          "attributes": {
            "NORMAL": 6,
            "POSITION": 5,
            "TANGENT": 7,
            "TEXCOORD_0": 8
          },
          "indices": 9,
          "material": 1,
          "mode": 4
        }
      ]
    }
  ],
  "nodes": [
    {
      "children": [
        1
      ],
      "matrix": [
        1.0,
        0.0,
        0.0,
        0.0,
        0.0,
        2.220446049250313e-16,
        -1.0,
        0.0,
        0.0,
        1.0,
        2.220446049250313e-16,
        0.0,
        0.0,
        0.0,
        0.0,
        1.0
      ],
      "name": "Sketchfab_model"
    },
    {
      "children": [
        2,
        3
      ],
      "name": "flagon.obj.cleaner.materialmerger.gles"
    },
    {
      "mesh": 0,
      "name": "Object_2"
    },
    {
      "mesh": 1,
      "name": "Object_3"
    }
  ],
  "samplers": [
    {
      "magFilter": 9729,
      "minFilter": 9987,
      "wrapS": 10497,
      "wrapT": 10497
    }
  ],
  "scene": 0,
  "scenes": [
    {
      "name": "Sketchfab_Scene",
      "nodes": [
        0
      ]
    }
  ],
  "textures": [
    {
      "sampler": 0,
      "source": 0
    },
    {
      "sampler": 0,
      "source": 1
    },
    {
      "sampler": 0,
      "source": 2
    },
    {
      "sampler": 0,
      "source": 3
    },
    {
      "sampler": 0,
      "source": 4
    },
    {
      "sampler": 0,
      "source": 5
    }
  ]
}
